<svg  viewBox="0 0 46 40" fill="none" xmlns="http://www.w3.org/2000/svg">
<path d="M35.603 16.6765C35.603 17.1072 35.3344 17.3812 34.9124 17.3812H21.5997C21.1776 17.3812 20.9091 17.1072 20.9091 16.6765V15.1102C20.9091 14.6795 21.1776 14.4054 21.5997 14.4054H34.9124C35.3344 14.4054 35.603 14.6795 35.603 15.1102V16.6765ZM41.5113 21.0619C41.5113 21.4926 41.2427 21.7667 40.8207 21.7667H24.4003C23.9783 21.7667 23.7098 21.4926 23.7098 21.0619V19.4957C23.7098 19.0649 23.9783 18.7908 24.4003 18.7908H40.6672C41.0892 18.7908 41.3578 19.0649 41.3578 19.4957L41.5113 21.0619ZM46 25.6431C46 26.0738 45.7314 26.3479 45.3094 26.3479H27.5079C27.0859 26.3479 26.8173 26.0738 26.8173 25.6431V24.0768C26.8173 23.6461 27.0859 23.3721 27.5079 23.3721H45.3094C45.7314 23.3721 46 23.6461 46 24.0768V25.6431ZM46 30.1851C46 30.6158 45.7314 30.8899 45.3094 30.8899H27.5079C27.0859 30.8899 26.8173 30.6158 26.8173 30.1851V28.6189C26.8173 28.1882 27.0859 27.9141 27.5079 27.9141H45.3094C45.7314 27.9141 46 28.1882 46 28.6189V30.1851ZM41.5113 34.5705C41.5113 35.0013 41.2427 35.2753 40.8207 35.2753H24.4003C23.9783 35.2753 23.7098 35.0013 23.7098 34.5705V33.0043C23.7098 32.5736 23.9783 32.2995 24.4003 32.2995H40.6672C41.0892 32.2995 41.3578 32.5736 41.3578 33.0043L41.5113 34.5705ZM35.603 39.1126C35.603 39.5433 35.3344 39.8174 34.9124 39.8174H21.5997C21.1776 39.8174 20.9091 39.5433 20.9091 39.1126V37.5464C20.9091 37.1156 21.1776 36.8416 21.5997 36.8416H34.9124C35.3344 36.8416 35.603 37.1156 35.603 37.5464V39.1126ZM10.397 3.05032C10.397 3.48103 10.6656 3.75512 11.0876 3.75512H24.4003C24.8224 3.75512 25.0909 3.48103 25.0909 3.05032V1.4841C25.0909 1.05339 24.8224 0.779297 24.4003 0.779297H11.0876C10.6656 0.779297 10.397 1.05339 10.397 1.4841V3.05032ZM4.48874 7.59237C4.48874 8.02308 4.7573 8.29717 5.17932 8.29717H21.4462C21.8682 8.29717 22.1368 8.02308 22.1368 7.59237V6.02614C22.1368 5.59543 21.8682 5.32134 21.4462 5.32134H5.17932C4.7573 5.32134 4.48874 5.59543 4.48874 6.02614V7.59237ZM0 12.1344C0 12.5651 0.268558 12.8392 0.690577 12.8392H18.4921C18.9141 12.8392 19.1827 12.5651 19.1827 12.1344V10.5682C19.1827 10.1375 18.9141 9.86339 18.4921 9.86339H0.690577C0.268558 9.86339 0 10.1375 0 10.5682V12.1344ZM0 16.6765C0 17.1072 0.268558 17.3812 0.690577 17.3812H18.4921C18.9141 17.3812 19.1827 17.1072 19.1827 16.6765V15.1102C19.1827 14.6795 18.9141 14.4054 18.4921 14.4054H0.690577C0.268558 14.4054 0 14.6795 0 15.1102V16.6765ZM4.48874 21.0619C4.48874 21.4926 4.7573 21.7667 5.17932 21.7667H21.4462C21.8682 21.7667 22.1368 21.4926 22.1368 21.0619V19.4957C22.1368 19.0649 21.8682 18.7908 21.4462 18.7908H5.17932C4.7573 18.7908 4.48874 19.0649 4.48874 19.4957V21.0619ZM10.397 25.6431C10.397 26.0738 10.6656 26.3479 11.0876 26.3479H24.4003C24.8224 26.3479 25.0909 26.0738 25.0909 25.6431V24.0768C25.0909 23.6461 24.8224 23.3721 24.4003 23.3721H11.0876C10.6656 23.3721 10.397 23.6461 10.397 24.0768V25.6431Z" fill="#7B80FC"/>
</svg>
