<svg  viewBox="0 0 53 47" fill="none" xmlns="http://www.w3.org/2000/svg">
<ellipse cx="26.5" cy="23.5" rx="26.5" ry="23.5" fill="#7B80FC"/>
<path d="M6.27335 27.3573V22.7461H12.1093V22.4764H6.27335V18.2697H12.4784V18H6V27.627H12.533V27.3573H6.27335ZM17.795 20.6966L15.3759 23.8382L13.0114 20.6966H12.656L15.2118 24.0404L12.41 27.627H12.738L15.3759 24.2427L18.0273 27.627H18.369L15.5535 24.0404L18.123 20.6966H17.795ZM19.1891 30V25.6854H19.2164C19.3804 26.3146 19.7039 26.8202 20.1868 27.2022C20.6697 27.5843 21.2847 27.7753 22.0319 27.7753C22.5148 27.7753 22.9431 27.6787 23.3166 27.4854C23.6902 27.2921 24.0023 27.0292 24.2528 26.6966C24.5034 26.364 24.6948 25.9775 24.8269 25.5371C24.959 25.0966 25.0251 24.6337 25.0251 24.1483C25.0251 23.627 24.9567 23.1461 24.82 22.7056C24.6834 22.2652 24.4852 21.8831 24.2255 21.5596C23.9658 21.236 23.6515 20.9843 23.2825 20.8045C22.9134 20.6247 22.4966 20.5348 22.0319 20.5348C21.6765 20.5348 21.3462 20.5865 21.041 20.6899C20.7358 20.7933 20.4647 20.9393 20.2278 21.1281C19.9909 21.3169 19.7859 21.5393 19.6128 21.7955C19.4396 22.0517 19.3075 22.3326 19.2164 22.6382H19.1891V20.6966H18.9157V30H19.1891ZM22.0319 27.5191C21.1754 27.5191 20.4875 27.2292 19.9681 26.6494C19.4487 26.0697 19.1891 25.236 19.1891 24.1483C19.1891 23.6989 19.2528 23.2719 19.3804 22.8674C19.508 22.4629 19.6925 22.1079 19.9339 21.8022C20.1754 21.4966 20.4738 21.2539 20.8292 21.0742C21.1845 20.8944 21.5854 20.8045 22.0319 20.8045C22.4875 20.8045 22.8861 20.8944 23.2278 21.0742C23.5695 21.2539 23.8519 21.4989 24.0752 21.809C24.2984 22.1191 24.467 22.4742 24.5809 22.8742C24.6948 23.2742 24.7517 23.6989 24.7517 24.1483C24.7517 24.5528 24.6993 24.9551 24.5945 25.3551C24.4897 25.7551 24.328 26.1146 24.1093 26.4337C23.8907 26.7528 23.6105 27.0135 23.2688 27.2157C22.9271 27.418 22.5148 27.5191 22.0319 27.5191ZM26.5285 27.627V23.7034C26.5285 23.3258 26.5831 22.9573 26.6925 22.5978C26.8018 22.2382 26.9704 21.9213 27.1982 21.6472C27.426 21.373 27.7153 21.1573 28.0661 21C28.4169 20.8427 28.8337 20.7775 29.3166 20.8045V20.5348C28.8975 20.5258 28.5308 20.5708 28.2164 20.6697C27.902 20.7685 27.631 20.9034 27.4032 21.0742C27.1754 21.2449 26.9932 21.4449 26.8565 21.6742C26.7198 21.9034 26.6196 22.1483 26.5558 22.409H26.5285V20.6966H26.2551V27.627H26.5285ZM29.6583 24.2157H35.5353C35.5535 23.7393 35.5057 23.2809 35.3918 22.8404C35.2779 22.4 35.0957 22.009 34.8451 21.6674C34.5945 21.3258 34.2711 21.0517 33.8747 20.8449C33.4784 20.6382 33.0068 20.5348 32.4601 20.5348C32.0683 20.5348 31.6857 20.6157 31.3121 20.7775C30.9385 20.9393 30.6105 21.1753 30.328 21.4854C30.0456 21.7955 29.8178 22.1753 29.6446 22.6247C29.4715 23.0742 29.385 23.5865 29.385 24.1618C29.385 24.6742 29.4442 25.1528 29.5626 25.5978C29.6811 26.0427 29.8633 26.4292 30.1093 26.7573C30.3554 27.0854 30.672 27.3393 31.0592 27.5191C31.4465 27.6989 31.9134 27.7843 32.4601 27.7753C33.262 27.7753 33.9362 27.5528 34.4829 27.1079C35.0296 26.6629 35.3531 26.036 35.4533 25.227H35.18C35.0615 25.991 34.7585 26.564 34.2711 26.9461C33.7836 27.3281 33.1708 27.5191 32.4328 27.5191C31.9317 27.5191 31.508 27.4337 31.1617 27.2629C30.8155 27.0921 30.533 26.8584 30.3144 26.5618C30.0957 26.2652 29.9339 25.9169 29.8292 25.5169C29.7244 25.1169 29.6674 24.6831 29.6583 24.2157ZM35.262 23.9461H29.6583C29.6857 23.4607 29.7768 23.0247 29.9317 22.6382C30.0866 22.2517 30.2893 21.9213 30.5399 21.6472C30.7904 21.373 31.082 21.164 31.4146 21.0202C31.7472 20.8764 32.1048 20.8045 32.4875 20.8045C32.9431 20.8045 33.344 20.8876 33.6902 21.0539C34.0364 21.2202 34.3257 21.4472 34.5581 21.7348C34.7904 22.0225 34.9658 22.3573 35.0843 22.7393C35.2027 23.1213 35.262 23.5236 35.262 23.9461ZM41.2073 22.7461H41.4806C41.4806 21.973 41.2528 21.4112 40.7973 21.0607C40.3417 20.7101 39.7221 20.5348 38.9385 20.5348C38.5011 20.5348 38.1321 20.5888 37.8314 20.6966C37.5308 20.8045 37.2847 20.9438 37.0934 21.1146C36.902 21.2854 36.7654 21.4742 36.6834 21.6809C36.6014 21.8876 36.5604 22.0854 36.5604 22.2742C36.5604 22.6517 36.6287 22.9528 36.7654 23.1775C36.9021 23.4022 37.1162 23.5775 37.4077 23.7034C37.6082 23.7933 37.836 23.8742 38.0911 23.9461C38.3462 24.018 38.6424 24.0944 38.9795 24.1753C39.2802 24.2472 39.5763 24.3191 39.8679 24.391C40.1595 24.4629 40.4169 24.5595 40.6401 24.6809C40.8633 24.8022 41.0456 24.9573 41.1868 25.1461C41.328 25.3348 41.3986 25.582 41.3986 25.8876C41.3986 26.1843 41.328 26.436 41.1868 26.6427C41.0456 26.8494 40.8656 27.018 40.6469 27.1483C40.4282 27.2787 40.1845 27.373 39.9157 27.4315C39.6469 27.4899 39.385 27.5191 39.1298 27.5191C38.3007 27.5191 37.6652 27.3371 37.2232 26.973C36.7813 26.609 36.5604 26.036 36.5604 25.2539H36.287C36.287 26.1258 36.5262 26.764 37.0046 27.1685C37.4829 27.573 38.1913 27.7753 39.1298 27.7753C39.4305 27.7753 39.7335 27.7416 40.0387 27.6742C40.344 27.6067 40.6173 27.4966 40.8588 27.3438C41.1002 27.191 41.2961 26.9933 41.4465 26.7506C41.5968 26.5079 41.672 26.2112 41.672 25.8607C41.672 25.5281 41.6059 25.2584 41.4738 25.0517C41.3417 24.8449 41.1686 24.6742 40.9544 24.5393C40.7403 24.4045 40.4989 24.2989 40.2301 24.2225C39.9613 24.1461 39.6902 24.0719 39.4169 24C39.0342 23.9011 38.6993 23.8157 38.4123 23.7438C38.1253 23.6719 37.8588 23.5865 37.6128 23.4876C37.3759 23.3888 37.1868 23.2472 37.0456 23.0629C36.9043 22.8787 36.8337 22.6157 36.8337 22.2742C36.8337 22.2112 36.8519 22.0989 36.8884 21.9371C36.9248 21.7753 37.0114 21.6112 37.1481 21.4449C37.2847 21.2787 37.4943 21.1303 37.7768 21C38.0592 20.8697 38.4465 20.8045 38.9385 20.8045C39.2756 20.8045 39.5831 20.8404 39.861 20.9124C40.139 20.9843 40.3781 21.0989 40.5786 21.2562C40.779 21.4135 40.9339 21.6135 41.0433 21.8562C41.1526 22.0989 41.2073 22.3955 41.2073 22.7461ZM47.5353 22.7461H47.8087C47.8087 21.973 47.5809 21.4112 47.1253 21.0607C46.6697 20.7101 46.0501 20.5348 45.2665 20.5348C44.8292 20.5348 44.4601 20.5888 44.1595 20.6966C43.8588 20.8045 43.6128 20.9438 43.4214 21.1146C43.2301 21.2854 43.0934 21.4742 43.0114 21.6809C42.9294 21.8876 42.8884 22.0854 42.8884 22.2742C42.8884 22.6517 42.9567 22.9528 43.0934 23.1775C43.2301 23.4022 43.4442 23.5775 43.7358 23.7034C43.9362 23.7933 44.164 23.8742 44.4191 23.9461C44.6743 24.018 44.9704 24.0944 45.3075 24.1753C45.6082 24.2472 45.9043 24.3191 46.1959 24.391C46.4875 24.4629 46.7449 24.5595 46.9681 24.6809C47.1913 24.8022 47.3736 24.9573 47.5148 25.1461C47.656 25.3348 47.7267 25.582 47.7267 25.8876C47.7267 26.1843 47.656 26.436 47.5148 26.6427C47.3736 26.8494 47.1936 27.018 46.9749 27.1483C46.7563 27.2787 46.5125 27.373 46.2437 27.4315C45.9749 27.4899 45.713 27.5191 45.4579 27.5191C44.6287 27.5191 43.9932 27.3371 43.5513 26.973C43.1093 26.609 42.8884 26.036 42.8884 25.2539H42.615C42.615 26.1258 42.8542 26.764 43.3326 27.1685C43.8109 27.573 44.5194 27.7753 45.4579 27.7753C45.7585 27.7753 46.0615 27.7416 46.3667 27.6742C46.672 27.6067 46.9453 27.4966 47.1868 27.3438C47.4282 27.191 47.6241 26.9933 47.7745 26.7506C47.9248 26.5079 48 26.2112 48 25.8607C48 25.5281 47.9339 25.2584 47.8018 25.0517C47.6697 24.8449 47.4966 24.6742 47.2825 24.5393C47.0683 24.4045 46.8269 24.2989 46.5581 24.2225C46.2893 24.1461 46.0182 24.0719 45.7449 24C45.3622 23.9011 45.0273 23.8157 44.7403 23.7438C44.4533 23.6719 44.1868 23.5865 43.9408 23.4876C43.7039 23.3888 43.5148 23.2472 43.3736 23.0629C43.2323 22.8787 43.1617 22.6157 43.1617 22.2742C43.1617 22.2112 43.18 22.0989 43.2164 21.9371C43.2528 21.7753 43.3394 21.6112 43.4761 21.4449C43.6128 21.2787 43.8223 21.1303 44.1048 21C44.3872 20.8697 44.7745 20.8045 45.2665 20.8045C45.6036 20.8045 45.9112 20.8404 46.1891 20.9124C46.467 20.9843 46.7062 21.0989 46.9066 21.2562C47.1071 21.4135 47.262 21.6135 47.3713 21.8562C47.4806 22.0989 47.5353 22.3955 47.5353 22.7461Z" fill="white"/>
</svg>
