<svg viewBox="0 0 31 46" fill="none" xmlns="http://www.w3.org/2000/svg">
<path fill-rule="evenodd" clip-rule="evenodd" d="M13.7585 3.57976H8.62083C5.78338 3.57976 3.48316 5.94377 3.48316 8.85992C3.48316 11.7761 5.78338 14.1401 8.62083 14.1401H13.7585V3.57976ZM22.3793 0C27.1407 0 31 3.9667 31 8.85992C31 11.7475 29.6562 14.3125 27.5757 15.9299C29.6562 17.5475 31 20.1124 31 23C31 27.8932 27.1407 31.8599 22.3793 31.8599C20.4542 31.8599 18.6765 31.2114 17.2417 30.1154V37.1401C17.2417 42.0333 13.382 46 8.62083 46C3.85966 46 0 42.0333 0 37.1401C0 34.2523 1.34408 31.6875 3.42437 30.07C1.34408 28.4525 0 25.8876 0 23C0 20.1124 1.34412 17.5475 3.42444 15.93C1.34412 14.3125 0 11.7475 0 8.85992C0 3.9667 3.85966 0 8.62083 0H22.3793ZM17.2417 3.57976V14.1401H22.3793C25.2169 14.1401 27.5168 11.7761 27.5168 8.85992C27.5168 5.94377 25.2169 3.57976 22.3793 3.57976H17.2417ZM8.62083 28.2801H13.7585V17.7199H8.62083C5.78338 17.7199 3.48316 20.0839 3.48316 23C3.48316 25.9092 5.77237 28.2689 8.60046 28.2801L8.62083 28.2801ZM3.48316 37.1401C3.48316 34.2308 5.77237 31.8712 8.60046 31.8599L8.62083 31.8599H13.7585V37.1401C13.7585 40.0562 11.4583 42.4202 8.62083 42.4202C5.78338 42.4202 3.48316 40.0562 3.48316 37.1401ZM17.2417 22.9895C17.2472 20.0782 19.5453 17.7199 22.3793 17.7199C25.2169 17.7199 27.5168 20.0839 27.5168 23C27.5168 25.9162 25.2169 28.2802 22.3793 28.2802C19.5453 28.2802 17.2472 25.9219 17.2417 23.0105V22.9895Z" fill="#7B80FC"/>
</svg>
