<svg viewBox="0 0 47 47" fill="none" xmlns="http://www.w3.org/2000/svg">
<path d="M46.1139 21.4066L25.592 0.886423C24.4112 -0.295474 22.4945 -0.295474 21.3123 0.886423L17.0511 5.14815L22.4562 10.5535C23.7128 10.1292 25.1531 10.4137 26.1542 11.4151C27.1606 12.4227 27.443 13.8753 27.0081 15.1361L32.2177 20.3459C33.478 19.9116 34.9322 20.1922 35.9386 21.2004C37.3456 22.6071 37.3456 24.8864 35.9386 26.2935C34.5314 27.7009 32.2521 27.7009 30.8441 26.2935C29.7862 25.2346 29.5245 23.6801 30.0603 22.3765L25.2018 17.5178L25.2014 30.3034C25.5444 30.4733 25.8682 30.6999 26.154 30.9845C27.5606 32.391 27.5606 34.67 26.154 36.0788C24.747 37.4853 22.4667 37.4853 21.0612 36.0788C19.6544 34.6701 19.6544 32.3911 21.0612 30.9845C21.4089 30.6375 21.8112 30.3748 22.2404 30.1987V17.2943C21.8109 17.1189 21.4091 16.8582 21.0609 16.5084C19.9953 15.4435 19.7387 13.8795 20.2852 12.5709L14.9568 7.24151L0.886666 21.3118C-0.295555 22.4946 -0.295555 24.4114 0.886666 25.5933L21.4073 46.1136C22.5888 47.2955 24.5048 47.2955 25.6878 46.1136L46.1136 25.6903C47.2955 24.5078 47.2955 22.5905 46.1136 21.4083" fill="#7B80FC"/>
</svg>
