<svg viewBox="0 0 42 42" fill="none" xmlns="http://www.w3.org/2000/svg">
<g clip-path="url(#clip0_14_236)">
<path d="M21 42C32.598 42 42 32.598 42 21C42 9.40202 32.598 0 21 0C9.40202 0 0 9.40202 0 21C0 32.598 9.40202 42 21 42Z" fill="#7B80FC"/>
<path d="M26.6134 18.4341C25.287 12.5799 22.1521 10.655 21.8146 9.91963C21.4454 9.40078 21.0714 8.47793 21.0714 8.47793C21.0652 8.46234 21.0554 8.43486 21.0439 8.4082C21.0057 8.92705 20.9861 9.12721 20.4955 9.65057C19.7359 10.2445 15.8386 13.5146 15.5215 20.1657C15.2258 26.3689 20.0025 30.0653 20.6485 30.5365L20.7219 30.5886V30.5841C20.726 30.6153 20.927 32.0607 21.0681 33.5922H21.5742C21.693 32.5096 21.871 31.4344 22.1074 30.3713L22.1484 30.3446C22.4374 30.1374 22.7129 29.912 22.9733 29.6699L23.0028 29.6432C24.376 28.3746 26.8447 25.4404 26.8205 20.7621C26.8154 19.9817 26.7461 19.2031 26.6134 18.4341ZM21.0144 27.0342C21.0144 27.0342 21.0144 18.334 21.3015 18.3356C21.5254 18.3356 21.8154 29.5579 21.8154 29.5579C21.4167 29.5099 21.0144 27.711 21.0144 27.0342Z" fill="white"/>
</g>
<defs>
<clipPath id="clip0_14_236">
<rect width="42" height="42" fill="white"/>
</clipPath>
</defs>
</svg>
