<svg viewBox="0 0 49 43" fill="none" xmlns="http://www.w3.org/2000/svg">
<g clip-path="url(#clip0_14_225)">
<path d="M22.8954 0.0115715C22.79 0.0199769 22.4547 0.0493958 22.153 0.0704093C15.1934 0.620964 8.67439 3.91589 4.54555 8.98015C2.24643 11.796 0.775953 14.99 0.220332 18.3732C0.0239492 19.5542 0 19.903 0 21.5042C0 23.1054 0.0239492 23.4543 0.220332 24.6352C1.55191 32.7086 8.09961 39.4918 16.98 42.005C18.5702 42.4547 20.2466 42.7615 22.153 42.9464C22.8954 43.0179 26.1046 43.0179 26.847 42.9464C30.1376 42.627 32.9253 41.9125 35.6747 40.6812C36.0962 40.492 36.1776 40.4416 36.1201 40.3996C36.0818 40.3744 34.2856 38.2604 32.1302 35.7052L28.2121 31.0612L23.3025 24.6857C20.6011 21.1806 18.3786 18.3144 18.3594 18.3144C18.3403 18.3102 18.3211 21.1428 18.3115 24.6016C18.2972 30.6577 18.2924 30.9015 18.2062 31.0444C18.0816 31.2503 17.9858 31.3343 17.7847 31.4268C17.6314 31.494 17.4973 31.5067 16.774 31.5067H15.9454L15.725 31.3848C15.5813 31.3049 15.476 31.1999 15.4041 31.078L15.3035 30.8889L15.3131 22.4624L15.3275 14.0318L15.476 13.8679C15.5526 13.7796 15.7154 13.6662 15.8304 13.6115C16.0268 13.5275 16.1034 13.5191 16.9321 13.5191C17.9092 13.5191 18.072 13.5527 18.3259 13.7964C18.3978 13.8637 21.0561 17.3772 24.2366 21.6093C27.417 25.8414 31.7662 31.6201 33.9024 34.457L37.7822 39.6137L37.9786 39.5002C39.7173 38.5084 41.5566 37.0962 43.0127 35.6253C46.1117 32.5027 48.1091 28.695 48.7797 24.6352C48.9761 23.4543 49 23.1054 49 21.5042C49 19.903 48.9761 19.5542 48.7797 18.3732C47.4481 10.2998 40.9004 3.51663 32.02 1.00341C30.4538 0.557923 28.7869 0.251126 26.9189 0.0662066C26.459 0.0241796 23.293 -0.0220502 22.8954 0.0115715ZM32.9253 13.0147C33.1552 13.1156 33.342 13.3089 33.4091 13.5107C33.4474 13.6199 33.457 15.9566 33.4474 21.2226L33.433 28.7791L31.9147 26.7366L30.3915 24.6941V19.2011C30.3915 15.6498 30.4107 13.6536 30.4394 13.5569C30.516 13.3215 30.6837 13.1366 30.9136 13.0274C31.11 12.9391 31.1818 12.9307 31.9338 12.9307C32.6427 12.9307 32.7673 12.9391 32.9253 13.0147Z" fill="#7B80FC"/>
</g>
<defs>
<clipPath id="clip0_14_225">
<rect width="49" height="43" fill="white"/>
</clipPath>
</defs>
</svg>
