<svg viewBox="0 0 49 43" fill="none" xmlns="http://www.w3.org/2000/svg">
<g clip-path="url(#clip0_12_175)">
<path d="M24.5 25.8077C26.912 25.8077 28.8674 23.8791 28.8674 21.5001C28.8674 19.121 26.912 17.1924 24.5 17.1924C22.0879 17.1924 20.1326 19.121 20.1326 21.5001C20.1326 23.8791 22.0879 25.8077 24.5 25.8077Z" fill="#7B80FC"/>
<path d="M24.5 30.3255C37.4427 30.3255 47.9348 26.3742 47.9348 21.5C47.9348 16.6259 37.4427 12.6746 24.5 12.6746C11.5573 12.6746 1.06522 16.6259 1.06522 21.5C1.06522 26.3742 11.5573 30.3255 24.5 30.3255Z" stroke="#7B80FC"/>
<path d="M16.7509 25.9128C23.2223 36.9682 31.9377 43.9548 36.2174 41.5177C40.4971 39.0806 38.7204 28.1427 32.249 17.0873C25.7777 6.03189 17.0623 -0.954648 12.7826 1.48244C8.50292 3.91953 10.2796 14.8574 16.7509 25.9128Z" stroke="#7B80FC"/>
<path d="M16.7509 17.0873C10.2796 28.1427 8.50292 39.0805 12.7826 41.5176C17.0623 43.9547 25.7777 36.9682 32.249 25.9128C38.7204 14.8573 40.4971 3.91949 36.2174 1.4824C31.9377 -0.954686 23.2223 6.03185 16.7509 17.0873Z" stroke="#7B80FC"/>
</g>
<defs>
<clipPath id="clip0_12_175">
<rect width="49" height="43" fill="white"/>
</clipPath>
</defs>
</svg>
