<svg  viewBox="0 0 52 39" fill="none" xmlns="http://www.w3.org/2000/svg">
<g clip-path="url(#clip0_14_228)">
<path d="M44.7475 22.4158C42.9344 22.4253 41.3587 22.8622 40.0392 23.5081C39.5551 22.5488 39.071 21.6939 38.9855 21.067C38.8906 20.3357 38.7767 19.8892 38.8906 19.0154C39.0045 18.1416 39.5171 16.8973 39.5076 16.8023C39.4981 16.7073 39.3937 16.2609 38.3495 16.2514C37.3054 16.2419 36.4036 16.4509 36.2991 16.7263C36.1947 17.0018 35.9954 17.6287 35.8625 18.2745C35.6821 19.2244 33.7741 22.6153 32.6825 24.3914C32.3313 23.6981 32.0275 23.0902 31.9611 22.6058C31.8661 21.8744 31.7522 21.428 31.8661 20.5541C31.9801 19.6803 32.4927 18.436 32.4832 18.341C32.4737 18.246 32.3692 17.7996 31.3251 17.7901C30.2809 17.7806 29.3791 17.9896 29.2747 18.265C29.1703 18.5405 29.0564 19.1864 28.838 19.8133C28.6197 20.4402 26.0852 26.1011 25.4207 27.5639C25.079 28.3142 24.7847 28.9126 24.5759 29.3211C24.5759 29.3211 24.5664 29.3496 24.5379 29.397C24.3576 29.7485 24.2531 29.9384 24.2531 29.9384C24.2531 29.9384 24.2531 29.9384 24.2531 29.9479C24.1108 30.2044 23.9589 30.4419 23.8829 30.4419C23.826 30.4419 23.7216 29.758 23.9019 28.8271C24.2816 26.861 25.1834 23.8025 25.1739 23.6981C25.1739 23.6411 25.3448 23.1092 24.5854 22.8337C23.845 22.5583 23.5792 23.0142 23.5127 23.0142C23.4463 23.0142 23.3988 23.1757 23.3988 23.1757C23.3988 23.1757 24.2247 19.7373 21.8231 19.7373C20.3232 19.7373 18.2539 21.3805 17.2287 22.8622C16.5832 23.2137 15.2068 23.964 13.7354 24.7714C13.1754 25.0848 12.5963 25.3983 12.0553 25.6927C12.0173 25.6547 11.9793 25.6072 11.9414 25.5692C9.03665 22.4633 3.66388 20.2692 3.8917 16.0994C3.97714 14.5797 4.49922 10.5904 14.2101 5.74629C22.2028 1.8045 28.5627 2.8968 29.6639 5.31886C31.2396 8.77624 26.2561 15.1971 17.9976 16.1279C14.8461 16.4794 13.1944 15.2636 12.7767 14.8077C12.34 14.3327 12.2736 14.3043 12.1122 14.3992C11.8464 14.5417 12.0173 14.9691 12.1122 15.2161C12.359 15.862 13.3747 17.0018 15.0929 17.5622C16.6117 18.0561 20.3043 18.3315 24.7752 16.6028C29.7778 14.6652 33.6887 9.27965 32.5401 4.76796C31.3915 0.189786 23.7975 -1.32044 16.6117 1.2346C12.34 2.75433 7.70769 5.1479 4.37582 8.26334C0.417443 11.9677 -0.209063 15.1876 0.0472354 16.5364C0.968009 21.3235 7.56531 24.4389 10.2042 26.747C10.0713 26.823 9.94793 26.8895 9.84351 26.9465C8.52405 27.6019 3.49302 30.2329 2.24001 33.0159C0.816129 36.1693 2.46783 38.4299 3.55947 38.7339C6.94829 39.6742 10.432 37.9835 12.3021 35.191C14.1721 32.3985 13.9443 28.7702 13.0805 27.108C13.071 27.089 13.0615 27.07 13.0425 27.051C13.3842 26.8515 13.7354 26.6425 14.0772 26.4431C14.7511 26.0441 15.4156 25.6737 15.9852 25.3698C15.6624 26.2531 15.4251 27.3074 15.3112 28.8271C15.1688 30.6128 15.8997 32.9304 16.8585 33.8422C17.2856 34.2412 17.7887 34.2507 18.1115 34.2507C19.2316 34.2507 19.7347 33.3198 20.2948 32.218C20.9782 30.8693 21.5952 29.3021 21.5952 29.3021C21.5952 29.3021 20.8263 33.5383 22.9147 33.5383C23.6741 33.5383 24.443 32.5505 24.7847 32.0471C24.7847 32.0566 24.7847 32.0566 24.7847 32.0566C24.7847 32.0566 24.8037 32.0281 24.8417 31.9616C24.9176 31.8381 24.9651 31.7621 24.9651 31.7621C24.9651 31.7621 24.9651 31.7526 24.9651 31.7431C25.2688 31.2112 25.9523 30.0049 26.968 28.0008C28.278 25.4173 29.5405 22.1878 29.5405 22.1878C29.5405 22.1878 29.6544 22.9762 30.0436 24.287C30.2714 25.0563 30.746 25.9017 31.1257 26.7185C30.822 27.1459 30.6321 27.3834 30.6321 27.3834C30.6321 27.3834 30.6321 27.3834 30.6416 27.3929C30.3948 27.7158 30.129 28.0673 29.8347 28.4092C28.8001 29.644 27.566 31.0592 27.3952 31.4677C27.1958 31.9521 27.2433 32.3035 27.623 32.5885C27.8983 32.7974 28.3919 32.8259 28.895 32.7974C29.8253 32.7309 30.4802 32.503 30.803 32.3605C31.3061 32.18 31.8946 31.9046 32.4452 31.4962C33.4609 30.7458 34.0779 29.6725 34.0209 28.2572C33.9925 27.4784 33.7362 26.6995 33.4229 25.9682C33.5178 25.8352 33.6033 25.7022 33.6982 25.5692C35.3024 23.2232 36.546 20.6491 36.546 20.6491C36.546 20.6491 36.6599 21.4375 37.0491 22.7482C37.2389 23.4131 37.6281 24.135 37.9698 24.8379C36.4605 26.0631 35.5303 27.4879 35.198 28.4187C34.6 30.1474 35.0651 30.9263 35.9479 31.1067C36.3466 31.1922 36.9162 31.0023 37.3338 30.8218C37.8654 30.6508 38.4919 30.3564 39.0899 29.9194C40.1056 29.1691 41.0834 28.1243 41.0264 26.709C40.9979 26.0631 40.8271 25.4268 40.5898 24.8094C41.8713 24.2775 43.523 23.983 45.6303 24.23C50.1487 24.7619 51.041 27.5829 50.8702 28.7702C50.6993 29.9574 49.75 30.6033 49.4368 30.8028C49.1235 31.0023 49.0191 31.0687 49.0476 31.2112C49.0856 31.4202 49.2374 31.4107 49.5032 31.3727C49.8734 31.3062 51.8764 30.4134 51.9618 28.2288C52.1042 25.4363 49.4463 22.3873 44.7475 22.4158ZM9.89097 34.1747C8.39116 35.8084 6.3028 36.4258 5.40101 35.9034C4.43278 35.343 4.81248 32.9304 6.65403 31.2017C7.77414 30.1474 9.217 29.1691 10.1757 28.5707C10.3941 28.4377 10.7168 28.2477 11.106 28.0103C11.1725 27.9723 11.2104 27.9533 11.2104 27.9533C11.2864 27.9058 11.3623 27.8583 11.4383 27.8108C12.1122 30.2804 11.4667 32.4555 9.89097 34.1747ZM20.8074 26.747C20.2853 28.0198 19.1936 31.2777 18.5292 31.0972C17.9596 30.9453 17.6084 28.4757 18.4153 26.0346C18.8234 24.8094 19.6872 23.3466 20.1904 22.7767C21.0067 21.8649 21.9085 21.5609 22.1268 21.9314C22.4021 22.4158 21.1301 25.9492 20.8074 26.747ZM29.8158 31.0592C29.5974 31.1732 29.3886 31.2492 29.2937 31.1922C29.2272 31.1542 29.3886 31.0023 29.3886 31.0023C29.3886 31.0023 30.5182 29.7865 30.9644 29.2356C31.2207 28.9126 31.5244 28.5327 31.8472 28.1053C31.8472 28.1433 31.8472 28.1908 31.8472 28.2288C31.8472 29.682 30.4423 30.6603 29.8158 31.0592ZM36.7643 29.473C36.6029 29.359 36.6314 28.9791 37.1725 27.7918C37.3813 27.3264 37.8749 26.5476 38.7197 25.7972C38.8147 26.1011 38.8811 26.3956 38.8716 26.671C38.8621 28.5042 37.5522 29.1881 36.7643 29.473Z" fill="#7B80FC"/>
</g>
<defs>
<clipPath id="clip0_14_228">
<rect width="52" height="39" fill="white"/>
</clipPath>
</defs>
</svg>
