<svg  viewBox="0 0 49 43" fill="none" xmlns="http://www.w3.org/2000/svg">
<g clip-path="url(#clip0_12_196)">
<path d="M44.2148 0H4.78516C2.14239 0 0 1.88005 0 4.19922V38.8008C0 41.1199 2.14239 43 4.78516 43H44.2148C46.8576 43 49 41.1199 49 38.8008V4.19922C49 1.88005 46.8576 0 44.2148 0Z" fill="#7B80FC"/>
<path d="M44.2148 0H4.78516C2.14239 0 0 1.88005 0 4.19922V38.8008C0 41.1199 2.14239 43 4.78516 43H44.2148C46.8576 43 49 41.1199 49 38.8008V4.19922C49 1.88005 46.8576 0 44.2148 0Z" fill="#7B80FC"/>
<path fill-rule="evenodd" clip-rule="evenodd" d="M30.3321 34.2173V38.4216C31.1109 38.772 32.032 39.0347 33.0955 39.2099C34.1589 39.3851 35.2797 39.4727 36.458 39.4727C37.6064 39.4727 38.6972 39.3763 39.7307 39.1836C40.7642 38.9909 41.6704 38.6734 42.4492 38.231C43.228 37.7888 43.8447 37.2106 44.299 36.4968C44.7533 35.7829 44.9805 34.9005 44.9805 33.8494C44.9805 33.0873 44.8507 32.4195 44.5911 31.8458C44.3314 31.2721 43.957 30.7619 43.4677 30.3152C42.9785 29.8685 42.3918 29.4677 41.7078 29.1129C41.0238 28.7582 40.2524 28.4232 39.3937 28.1079C38.7646 27.8801 38.2005 27.659 37.7012 27.4444C37.2019 27.2297 36.7776 27.0108 36.4281 26.7875C36.0785 26.5641 35.809 26.3276 35.6193 26.078C35.4296 25.8283 35.3346 25.5459 35.3346 25.2305C35.3346 24.9415 35.4195 24.6809 35.5893 24.4488C35.7591 24.2166 35.9987 24.0174 36.3082 23.851C36.6178 23.6846 36.9972 23.5553 37.4465 23.4634C37.896 23.3714 38.3951 23.3255 38.9444 23.3255C39.3437 23.3255 39.7656 23.3518 40.21 23.4043C40.6543 23.4568 41.1011 23.5379 41.5506 23.6473C41.9999 23.7568 42.4367 23.8948 42.8611 24.0612C43.2855 24.2276 43.6774 24.4203 44.0368 24.6393V20.7109C43.308 20.4656 42.5116 20.2839 41.6479 20.1657C40.7842 20.0474 39.7931 19.9883 38.6748 19.9883C37.5364 19.9883 36.458 20.0956 35.4395 20.3102C34.4211 20.5248 33.5249 20.8598 32.7509 21.3152C31.9771 21.7708 31.3656 22.351 30.9162 23.0561C30.4669 23.7612 30.2422 24.6042 30.2422 25.5853C30.2422 26.8378 30.6541 27.9064 31.4779 28.7911C32.3016 29.6757 33.5523 30.4246 35.2299 31.0378C35.8889 31.2743 36.503 31.5063 37.0721 31.7341C37.6413 31.9618 38.1331 32.1983 38.5474 32.4436C38.9618 32.6888 39.2888 32.956 39.5285 33.245C39.7682 33.534 39.888 33.8625 39.888 34.2304C39.888 34.502 39.8131 34.7537 39.6633 34.9859C39.5135 35.218 39.2863 35.4194 38.9818 35.5902C38.6773 35.7611 38.2978 35.8946 37.8435 35.9909C37.3891 36.0873 36.8575 36.1355 36.2483 36.1355C35.2098 36.1355 34.1814 35.9756 33.1629 35.6559C32.1444 35.3363 31.2008 34.8567 30.3321 34.2173ZM22.2778 23.8584H28.4238V20.4082H11.293V23.8584H17.409V39.2207H22.2778V23.8584Z" fill="white"/>
</g>
<defs>
<clipPath id="clip0_12_196">
<rect width="49" height="43" fill="white"/>
</clipPath>
</defs>
</svg>
