<svg viewBox="0 0 25 24" fill="none" xmlns="http://www.w3.org/2000/svg">
<g clip-path="url(#clip0_14_269)">
<path fill-rule="evenodd" clip-rule="evenodd" d="M12.5552 0.188232C6.1566 0.188232 0.97403 5.37081 0.97403 11.7694C0.97403 16.8941 4.28914 21.2225 8.89265 22.757C9.47171 22.8584 9.68886 22.5109 9.68886 22.2069C9.68886 21.9319 9.67438 21.0199 9.67438 20.0499C6.76461 20.5856 6.01184 19.3406 5.78021 18.6891C5.64993 18.3562 5.08534 17.3284 4.59314 17.0533C4.1878 16.8362 3.60875 16.3005 4.57867 16.2861C5.49069 16.2716 6.14213 17.1257 6.35927 17.4731C7.40158 19.2248 9.06637 18.7326 9.73229 18.4286C9.83362 17.6758 10.1376 17.1691 10.4706 16.8796C7.89378 16.5901 5.20116 15.5912 5.20116 11.1614C5.20116 9.90194 5.64993 8.85963 6.38823 8.04895C6.27241 7.75942 5.86707 6.57235 6.50404 4.97994C6.50404 4.97994 7.47396 4.67594 9.68886 6.16701C10.6154 5.90643 11.5998 5.77615 12.5842 5.77615C13.5686 5.77615 14.553 5.90643 15.4794 6.16701C17.6943 4.66146 18.6643 4.97994 18.6643 4.97994C19.3012 6.57235 18.8959 7.75942 18.7801 8.04895C19.5184 8.85963 19.9671 9.88746 19.9671 11.1614C19.9671 15.6057 17.26 16.5901 14.6832 16.8796C15.1031 17.2415 15.465 17.9364 15.465 19.0221C15.465 20.5711 15.4505 21.8161 15.4505 22.2069C15.4505 22.5109 15.6676 22.8728 16.2467 22.757C20.8213 21.2225 24.1364 16.8796 24.1364 11.7694C24.1364 5.37081 18.9538 0.188232 12.5552 0.188232Z" fill="#FFF4EB"/>
</g>
<defs>
<clipPath id="clip0_14_269">
<rect width="23.1623" height="23.1623" fill="white" transform="translate(0.97403 0.188232)"/>
</clipPath>
</defs>
</svg>
