<svg width="46" height="46" viewBox="0 0 46 46" fill="none" xmlns="http://www.w3.org/2000/svg">
<g clip-path="url(#clip0_15_394)">
<path fill-rule="evenodd" clip-rule="evenodd" d="M5.11111 46H40.8889C43.7117 46 46 43.7117 46 40.8889V5.11111C46 2.28832 43.7117 0 40.8889 0H5.11111C2.28832 0 0 2.28832 0 5.11111V40.8889C0 43.7117 2.28832 46 5.11111 46Z" fill="#FFF4EB"/>
<path fill-rule="evenodd" clip-rule="evenodd" d="M39.6111 39.6109H32.785V27.9845C32.785 24.7968 31.5738 23.0155 29.0507 23.0155C26.306 23.0155 24.872 24.8692 24.872 27.9845V39.6109H18.2935V17.4627H24.872V20.4461C24.872 20.4461 26.85 16.7861 31.55 16.7861C36.2478 16.7861 39.6111 19.6549 39.6111 25.5881V39.6109ZM10.4454 14.5626C8.20464 14.5626 6.38889 12.7326 6.38889 10.4756C6.38889 8.21868 8.20464 6.38867 10.4454 6.38867C12.6862 6.38867 14.5009 8.21868 14.5009 10.4756C14.5009 12.7326 12.6862 14.5626 10.4454 14.5626ZM7.04857 39.6109H13.9082V17.4627H7.04857V39.6109Z" fill="#4A4A4A"/>
</g>
<defs>
<clipPath id="clip0_15_394">
<rect width="46" height="46" fill="white"/>
</clipPath>
</defs>
</svg>
