<svg viewBox="0 0 53 53" fill="none" xmlns="http://www.w3.org/2000/svg">
<path d="M24.6243 2.069C25.2686 0.327767 27.7314 0.327775 28.3757 2.06901L34.1485 17.6698C34.3511 18.2173 34.7827 18.6489 35.3302 18.8515L50.931 24.6243C52.6722 25.2686 52.6722 27.7314 50.931 28.3757L35.3302 34.1485C34.7827 34.3511 34.3511 34.7827 34.1485 35.3302L28.3757 50.931C27.7314 52.6722 25.2686 52.6722 24.6243 50.931L18.8515 35.3302C18.6489 34.7827 18.2173 34.3511 17.6698 34.1485L2.069 28.3757C0.327767 27.7314 0.327775 25.2686 2.06901 24.6243L17.6698 18.8515C18.2173 18.6489 18.6489 18.2173 18.8515 17.6698L24.6243 2.069Z" fill="#FFF5EB"/>
</svg>
