<svg width="37" height="37" viewBox="0 0 37 37" fill="none" xmlns="http://www.w3.org/2000/svg">
<path d="M16.635 1.8162C17.2947 0.112498 19.7053 0.112498 20.365 1.8162L24.2452 11.836C24.4558 12.38 24.8935 12.8049 25.4435 12.9994L35.6672 16.6144C37.4449 17.243 37.4449 19.757 35.6672 20.3856L25.4435 24.0006C24.8935 24.1951 24.4558 24.62 24.2452 25.164L20.365 35.1838C19.7053 36.8875 17.2947 36.8875 16.635 35.1838L12.7548 25.164C12.5442 24.62 12.1065 24.1951 11.5565 24.0006L1.33276 20.3856C-0.444941 19.757 -0.444939 17.243 1.33276 16.6144L11.5565 12.9994C12.1065 12.8049 12.5442 12.38 12.7548 11.836L16.635 1.8162Z" fill="#FDFEFF"/>
</svg>
