<svg width="24" height="24" viewBox="0 0 24 24" fill="none" xmlns="http://www.w3.org/2000/svg">
<g clip-path="url(#clip0_14_279)">
<path d="M12.2435 0.188232C5.84741 0.188232 0.662354 5.37329 0.662354 11.7694C0.662354 18.1655 5.84741 23.3506 12.2435 23.3506C18.6396 23.3506 23.8247 18.1655 23.8247 11.7694C23.8247 5.37329 18.6396 0.188232 12.2435 0.188232ZM2.14668 12.4932H4.63035C4.6856 13.695 4.86722 14.7945 5.14928 15.7819H2.94228C2.50036 14.7616 2.22926 13.6535 2.14668 12.4932ZM15.8162 11.0456C15.7617 9.88214 15.6238 8.78009 15.4371 7.75693H17.8097C18.1255 8.72804 18.3423 9.8231 18.4076 11.0456H15.8162ZM10.418 15.7819C10.2137 14.6539 10.1134 13.5529 10.0948 12.4932H14.3923C14.3737 13.5529 14.2734 14.6539 14.0691 15.7819H10.418ZM13.7537 17.2296C13.4143 18.5325 12.923 19.8606 12.2434 21.1917C11.5638 19.8606 11.0726 18.5325 10.7333 17.2296H13.7537ZM10.1145 11.0456C10.1719 9.87548 10.3198 8.77286 10.5163 7.75693H13.9708C14.1673 8.77286 14.3152 9.87548 14.3726 11.0456H10.1145ZM10.8416 6.30933C11.294 4.54337 11.8529 3.15003 12.2434 2.29218C12.634 3.15003 13.193 4.54337 13.6455 6.30933H10.8416ZM15.1303 6.30933C14.6685 4.39551 14.0755 2.85814 13.6353 1.86452C14.1824 2.25379 15.9998 3.6926 17.2396 6.30933H15.1303ZM10.8516 1.86443C10.4114 2.85805 9.81847 4.39546 9.35669 6.30933H7.24712C8.48706 3.69236 10.3047 2.25356 10.8516 1.86443ZM9.04996 7.75698C8.86324 8.78014 8.72535 9.88219 8.6709 11.0456H6.07917C6.14455 9.8232 6.36128 8.72809 6.67714 7.75698H9.04996ZM4.63191 11.0456H2.14668C2.22926 9.88536 2.50031 8.77739 2.94224 7.75693H5.1593C4.87516 8.74421 4.68995 9.84296 4.63191 11.0456ZM6.07842 12.4932H8.65104C8.66749 13.5547 8.75679 14.6542 8.94606 15.7819H6.6779C6.35939 14.8083 6.1419 13.7129 6.07842 12.4932ZM9.24584 17.2296C9.60094 18.7036 10.1284 20.2101 10.8882 21.7227C10.3755 21.3556 8.51155 19.8895 7.24778 17.2296H9.24584ZM13.5971 21.726C14.3579 20.2123 14.8858 18.7047 15.2412 17.2296H17.2537C15.9937 19.9031 14.1218 21.357 13.5971 21.726ZM15.541 15.7819C15.7304 14.6542 15.8196 13.5547 15.836 12.4932H18.4091C18.3469 13.7151 18.1329 14.8102 17.8191 15.7819H15.541ZM19.8564 12.4932H22.3404C22.2577 13.6535 21.9867 14.7615 21.5448 15.7819H19.3375C19.6196 14.7945 19.8012 13.695 19.8564 12.4932ZM19.8549 11.0456C19.7969 9.84291 19.6117 8.74421 19.3275 7.75693H21.5449C21.9868 8.77735 22.2578 9.88531 22.3404 11.0456H19.8549ZM20.7667 6.30933H18.8172C18.1702 4.75065 17.3266 3.51765 16.5327 2.60165C18.2693 3.41754 19.7367 4.70706 20.7667 6.30933ZM7.95386 2.60184C7.1601 3.51784 6.31661 4.75079 5.66958 6.30933H3.7203C4.75027 4.70716 6.21753 3.41777 7.95386 2.60184ZM3.72035 17.2296H5.65781C6.2951 18.7723 7.12677 20.0012 7.91505 20.9182C6.19574 20.1013 4.74261 18.8196 3.72035 17.2296ZM16.5723 20.9181C17.3604 20.0011 18.1919 18.7722 18.8291 17.2296H20.7667C19.7445 18.8195 18.2915 20.1011 16.5723 20.9181Z" fill="#FFF4EB"/>
</g>
<defs>
<clipPath id="clip0_14_279">
<rect width="23.1623" height="23.1623" fill="white" transform="translate(0.662354 0.188232)"/>
</clipPath>
</defs>
</svg>
